# xmcd
# Track frame offsets:
# 150
# 16822
# 34299
# 51995
# 79121
# 96420
# 107161
# 125425
# 143748
# 156331
# 172453
# 204391
# 218214
#
# Disc length: 3109 seconds
# Revision: 0
# Processed by: cddbd v1.5.2PL0 Copyright (c) Steve Scherf et al.
# Submitted via: VisiTrax 2.10.2.252 - For more info visit www.synapsa.com
#
DISCID=be0c230d
DTITLE=Karavan - Autumn Sessions
DYEAR=2007
DGENRE=Blues
TTITLE0=Crossroads
TTITLE1=The feeling misic brings
TTITLE2=Why a I treated so bad
TTITLE3=Three o´clock in the morning
TTITLE4=Piss Ally
TTITLE5=Lord I´ve been changed
TTITLE6=Basin street blues
TTITLE7=When my dreamboat
TTITLE8=Tore down
TTITLE9=Evidence
TTITLE10=Five long years
TTITLE11=Temptation
TTITLE12=Somebody chaned the lock
EXTD=
EXTT0=
EXTT1=
EXTT2=
EXTT3=
EXTT4=
EXTT5=
EXTT6=
EXTT7=
EXTT8=
EXTT9=
EXTT10=
EXTT11=
EXTT12=
PLAYORDER=
